<?xml version="1.0" standalone="no"?>
<svg viewBox="0 0 200 200" xmlns="http://www.w3.org/2000/svg">
  <path fill="#F2F4F8" d="M32.2,-56.9C41.6,-50.3,49.1,-41.5,58.4,-31.7C67.6,-21.8,78.6,-10.9,78.9,0.2C79.3,11.3,69,22.6,61.1,34.7C53.1,46.9,47.6,59.9,37.8,65.3C28,70.6,14,68.4,0.8,67C-12.4,65.6,-24.8,65,-38,61.6C-51.1,58.1,-65.1,51.9,-70.3,41.2C-75.4,30.4,-71.7,15.2,-72.5,-0.4C-73.2,-16.1,-78.4,-32.2,-74.9,-45.7C-71.4,-59.2,-59.1,-70.2,-45.2,-74.2C-31.2,-78.3,-15.6,-75.4,-2.1,-71.8C11.4,-68.1,22.7,-63.6,32.2,-56.9Z" transform="translate(100 100)" />
</svg>
