<svg width="1440" height="220" viewBox="0 0 1440 220" fill="none" xmlns="http://www.w3.org/2000/svg">
<g id="waves 1" clip-path="url(#clip0_0_1)">
<path id="Vector" d="M0 160L48 170.7C96 181 192 203 288 197.3C384 192 480 160 576 160C672 160 768 192 864 192C960 192 1056 160 1152 154.7C1248 149 1344 171 1392 181.3L1440 192V320H1392C1344 320 1248 320 1152 320C1056 320 960 320 864 320C768 320 672 320 576 320C480 320 384 320 288 320C192 320 96 320 48 320H0V160Z" fill="white"/>
<path id="Vector_2" opacity="0.5" d="M1 158.009L48.9667 164.897C96.9333 171.527 192.867 185.688 288.8 182.019C384.733 178.607 480.667 158.009 576.6 158.009C672.533 158.009 768.467 178.607 864.4 178.607C960.333 178.607 1056.27 158.009 1152.2 154.597C1248.13 150.928 1344.07 165.09 1392.03 171.72L1440 178.607V261H1392.03C1344.07 261 1248.13 261 1152.2 261C1056.27 261 960.333 261 864.4 261C768.467 261 672.533 261 576.6 261C480.667 261 384.733 261 288.8 261C192.867 261 96.9333 261 48.9667 261H1V158.009Z" fill="white"/>
<path id="Vector_3" opacity="0.2" d="M0 155.023L48 158.499C96 161.845 192 168.992 288 167.14C384 165.419 480 155.023 576 155.023C672 155.023 768 165.419 864 165.419C960 165.419 1056 155.023 1152 153.302C1248 151.45 1344 158.597 1392 161.943L1440 165.419V207H1392C1344 207 1248 207 1152 207C1056 207 960 207 864 207C768 207 672 207 576 207C480 207 384 207 288 207C192 207 96 207 48 207H0V155.023Z" fill="white"/>
</g>
<defs>
<clipPath id="clip0_0_1">
<rect width="1440" height="220" fill="white"/>
</clipPath>
</defs>
</svg>
